<svg width="24" height="24" viewBox="0 0 24 24" fill="none" xmlns="http://www.w3.org/2000/svg">
<path d="M1.45459 4.86914H5.09095" stroke="#DA0175" stroke-width="1.5" stroke-linecap="round" stroke-linejoin="round"/>
<path d="M1.45459 19.4785H5.09095" stroke="#DA0175" stroke-width="1.5" stroke-linecap="round" stroke-linejoin="round"/>
<path d="M13.0909 4.86914H22.5455" stroke="#DA0175" stroke-width="1.5" stroke-linecap="round" stroke-linejoin="round"/>
<path d="M13.0909 19.4785H22.5455" stroke="#DA0175" stroke-width="1.5" stroke-linecap="round" stroke-linejoin="round"/>
<path d="M1.45459 12.1738H12.3637" stroke="#DA0175" stroke-width="1.5" stroke-linecap="round" stroke-linejoin="round"/>
<path d="M20.3636 12.1738H22.5455" stroke="#DA0175" stroke-width="1.5" stroke-linecap="round" stroke-linejoin="round"/>
<path d="M9.09097 8.00013C10.8984 8.00013 12.3637 6.59858 12.3637 4.86969C12.3637 3.1408 10.8984 1.73926 9.09097 1.73926C7.28349 1.73926 5.81824 3.1408 5.81824 4.86969C5.81824 6.59858 7.28349 8.00013 9.09097 8.00013Z" stroke="#DA0175" stroke-width="1.5" stroke-linecap="round" stroke-linejoin="round"/>
<path d="M9.09097 22.6085C10.8984 22.6085 12.3637 21.207 12.3637 19.4781C12.3637 17.7492 10.8984 16.3477 9.09097 16.3477C7.28349 16.3477 5.81824 17.7492 5.81824 19.4781C5.81824 21.207 7.28349 22.6085 9.09097 22.6085Z" stroke="#DA0175" stroke-width="1.5" stroke-linecap="round" stroke-linejoin="round"/>
<path d="M16.3637 15.3038C18.1711 15.3038 19.6364 13.9023 19.6364 12.1734C19.6364 10.4445 18.1711 9.04297 16.3637 9.04297C14.5562 9.04297 13.0909 10.4445 13.0909 12.1734C13.0909 13.9023 14.5562 15.3038 16.3637 15.3038Z" stroke="#DA0175" stroke-width="1.5" stroke-linecap="round" stroke-linejoin="round"/>
</svg>
