<svg width="554" height="430" viewBox="0 0 554 430" fill="none" xmlns="http://www.w3.org/2000/svg">
<path d="M182.083 361.917L235.833 308.167M389.917 243.667C389.917 194.191 349.809 154.083 300.333 154.083C250.858 154.083 210.75 194.191 210.75 243.667C210.75 293.143 250.858 333.25 300.333 333.25" stroke="#E70000" stroke-opacity="0.45" stroke-width="4" stroke-linecap="round" stroke-linejoin="round"/>
<path d="M395.25 274.75L328.75 341.25" stroke="#F08889" stroke-width="4" stroke-linecap="round" stroke-linejoin="round"/>
<path d="M328.75 274.75L395.25 341.25" stroke="#F08889" stroke-width="4" stroke-linecap="round" stroke-linejoin="round"/>
<path d="M434 116C443.573 116 451.333 108.24 451.333 98.6668C451.333 89.0939 443.573 81.3335 434 81.3335C424.427 81.3335 416.667 89.0939 416.667 98.6668C416.667 108.24 424.427 116 434 116Z" fill="#F5BDB2" stroke="#F2D6D0" stroke-linecap="round" stroke-linejoin="round"/>
<path d="M435.333 158.667H407.064C400.774 158.667 396.08 153.121 399.285 147.709C403.933 139.858 413.943 130.667 435.333 130.667" fill="#F5BDB2"/>
<path d="M435.333 158.667H407.064C400.774 158.667 396.08 153.121 399.285 147.709C403.933 139.858 413.943 130.667 435.333 130.667" stroke="#F2D6D0" stroke-linecap="round" stroke-linejoin="round"/>
<path d="M472.667 158.667L454 140" stroke="#F2D6D0" stroke-width="1.5" stroke-linecap="round" stroke-linejoin="round"/>
<path d="M454 158.667L472.667 140" stroke="#F2D6D0" stroke-width="1.5" stroke-linecap="round" stroke-linejoin="round"/>
</svg>

